<svg version="1.1" id="svg2" inkscape:version="0.47 r22583" xmlns:cc="http://creativecommons.org/ns#" xmlns:dc="http://purl.org/dc/elements/1.1/" xmlns:inkscape="http://www.inkscape.org/namespaces/inkscape" xmlns:rdf="http://www.w3.org/1999/02/22-rdf-syntax-ns#" xmlns:sodipodi="http://sodipodi.sourceforge.net/DTD/sodipodi-0.dtd" xmlns:svg="http://www.w3.org/2000/svg" xmlns="http://www.w3.org/2000/svg" xmlns:xlink="http://www.w3.org/1999/xlink" x="0px" y="0px" viewBox="0 0 288.9 236.4" style="enable-background:new 0 0 288.9 236.4;" xml:space="preserve">
 <style type="text/css">
  .st0{fill:#FF770F;}
	.st1{enable-background:new    ;}
 </style>
 <defs>
  <inkscape:perspective id="perspective10" inkscape:persp3d-origin="372.04724 : 350.78739 : 1" inkscape:vp_x="0 : 526.18109 : 1" inkscape:vp_y="0 : 1000 : 0" inkscape:vp_z="744.09448 : 526.18109 : 1" sodipodi:type="inkscape:persp3d">
  </inkscape:perspective>
  <inkscape:perspective id="perspective2824" inkscape:persp3d-origin="0.5 : 0.33333333 : 1" inkscape:vp_x="0 : 0.5 : 1" inkscape:vp_y="0 : 1000 : 0" inkscape:vp_z="1 : 0.5 : 1" sodipodi:type="inkscape:persp3d">
  </inkscape:perspective>
 </defs>
 <sodipodi:namedview bordercolor="#666666" borderopacity="1.0" id="base" inkscape:current-layer="layer3" inkscape:cx="271.93974" inkscape:cy="111.34636" inkscape:document-units="px" inkscape:pageopacity="0.0" inkscape:pageshadow="2" inkscape:window-height="808" inkscape:window-maximized="1" inkscape:window-width="1152" inkscape:window-x="-4" inkscape:window-y="-4" inkscape:zoom="1.4" pagecolor="#ffffff" showgrid="false">
 </sodipodi:namedview>
 <g id="layer2" inkscape:groupmode="layer" inkscape:label="W">
  <path id="path3603" sodipodi:nodetypes="ccsccccscccsccccscc" class="st0" d="M144.4,0l-40.9,111.1c0,0-27.8-76.8-34.3-93.9
		S52.5,4,27.8,4H0v18.7h39.9c30.8,0,27.8,7.6,38.9,37.9s23.8,64.6,23.8,64.6l41.4-112.1l41.9,112.1c0,0,18.7-47,28.8-76.3
		c10.1-29.3,21.2-26.3,44.4-26.3h28.3V3.5H249c-28.3,0-26.3,3.5-35.4,28.8c-9.1,25.3-29.3,78.8-29.3,78.8L144.4,0z">
  </path>
  <path id="path3607" class="st0" d="M143.9,28.3l-42.4,110.6c0,0-24.7-63.6-32.8-83.8s-9.6-22.8-30.8-22.8
		c-20.3,0-36.4-0.4-37.9-0.5v19.7h38.4c25.3,0,24.7,5.5,37.4,38.9s24.8,62.6,24.8,62.6l43.4-110.1L187.9,153
		c0,0,30.3-70.7,33.8-85.8c3.5-15.2,14.1-15.7,34.8-15.7h31.8V32.3h-44.5c-21.7,0-20.7,11.1-30.3,37.9s-26.8,68.2-26.8,68.2
		L143.9,28.3z">
  </path>
  <path id="path3609" sodipodi:nodetypes="ccsscccssccsscccssc" class="st0" d="M0,79.3V60.1c0,0,10.6,0,28.3,0s26.8-4,39.4,26.3
		S99,165.7,99,165.7l45.5-108.1l43.9,108.6c0,0,22.2-52.5,31.3-74.8c9.1-22.2,8.1-32.3,32.8-32.3s35.9,0,35.9,0v20.7
		c0,0-14.1,0-31.8,0s-25.8-2.5-36.4,26.8c-10.6,29.3-30.3,74.2-30.3,74.2l-46-110.1L99,180.8c0,0-20.2-49.5-29.3-71.7
		S57.6,79.3,37.4,79.3S0.5,79.3,0,79.3z">
  </path>
  <path id="path3611" class="st0" d="M96.5,207.6c0,0-19.2-44.4-29.3-67.7c-10.1-23.2-12.6-32.3-31.3-32.3s-35.9,0-35.9,0V87.4
		c0,0,5.1,0,26.3,0s25.3,0.3,34.3,19.8S97,192.9,97,192.9l47.5-107.6l46,107.6c0,0,22.7-51,32.8-74.2c10.1-23.2,10.1-30.8,29.3-30.8
		c19.2,0,35.9,0,35.9,0v20.2c0,0-9.6,0-26.8,0s-28.3-1.5-35.9,19.2s-34.3,80.8-34.3,80.8L143.9,99L96.5,207.6L96.5,207.6z">
  </path>
  <path id="path3613" class="st0" d="M94.4,236.4c0,0-23.7-51-33.3-72.7s-8.6-28.3-21.2-28.3s-39.9,0-39.9,0v-19.2c0,0,7.6,0,24.7,0
		s21.7-3.5,32.8,21.7s37.9,83.3,37.9,83.3l48.5-107.6l48,107.1c0,0,27.8-57.1,36.9-76.8s6.6-27.8,31.8-27.8s28.3,0,28.3,0v19.7
		c0,0-13.1,0-29.3,0s-19.7-2-25.8,13.6c-6.1,15.7-40.4,86.9-40.4,86.9l-50-109.1L94.4,236.4z">
  </path>
  <g class="st1">
   <path class="st0" d="M242.5,139.9c0.7,0,1.4,0.2,2,0.5c0.7,0.4,1.2,0.9,1.6,1.5c0.4,0.7,0.6,1.4,0.6,2.1c0,0.7-0.2,1.4-0.5,2.1
			c-0.4,0.7-0.9,1.2-1.5,1.5c-0.7,0.4-1.3,0.5-2.1,0.5s-1.4-0.2-2.1-0.5c-0.7-0.4-1.2-0.9-1.5-1.5c-0.4-0.7-0.5-1.3-0.5-2.1
			c0-0.7,0.2-1.4,0.6-2.1c0.4-0.7,0.9-1.2,1.6-1.5C241.1,140.1,241.8,139.9,242.5,139.9z M242.5,140.6c-0.6,0-1.2,0.1-1.7,0.4
			c-0.6,0.3-1,0.7-1.3,1.3c-0.3,0.6-0.5,1.1-0.5,1.7c0,0.6,0.2,1.2,0.5,1.7s0.7,1,1.3,1.3c0.6,0.3,1.1,0.5,1.7,0.5s1.2-0.2,1.7-0.5
			c0.6-0.3,1-0.7,1.3-1.3c0.3-0.5,0.5-1.1,0.5-1.7c0-0.6-0.2-1.2-0.5-1.7c-0.3-0.6-0.7-1-1.3-1.3
			C243.7,140.7,243.1,140.6,242.5,140.6z M240.7,146.4v-4.5h1.5c0.5,0,0.9,0,1.1,0.1c0.2,0.1,0.4,0.2,0.6,0.4
			c0.1,0.2,0.2,0.4,0.2,0.7c0,0.3-0.1,0.6-0.3,0.9c-0.2,0.2-0.5,0.4-0.9,0.4c0.2,0.1,0.3,0.1,0.4,0.2c0.2,0.2,0.4,0.5,0.7,0.9
			l0.5,0.9h-0.9l-0.4-0.7c-0.3-0.6-0.6-0.9-0.8-1c-0.1-0.1-0.3-0.2-0.6-0.2h-0.4v1.9H240.7z M241.4,143.8h0.9c0.4,0,0.7-0.1,0.9-0.2
			c0.2-0.1,0.2-0.3,0.2-0.5c0-0.1,0-0.2-0.1-0.4c-0.1-0.1-0.2-0.2-0.3-0.2c-0.1-0.1-0.4-0.1-0.7-0.1h-0.8V143.8z">
   </path>
  </g>
 </g>
</svg>